# xmcd CD database file
#
# Track frame offsets:
#	150
#	74113
#	136974
#	200970
#
# Disc length: 3148 seconds
#
# Revision: 0
# Processed by: cddbd v1.5.1PL2 Copyright (c) Steve Scherf et al.
# Submitted via: CDex 1.51
#
DISCID=440c4a04
DTITLE=Phil Lesh and Friends - Phil Lesh and Friends Boca Raton, FL 6.22.06
DYEAR=2006
DGENRE=Rhythmic Soul
TTITLE0=Dark Star
TTITLE1=Morning Dew
TTITLE2=Not Fade Away/Donor Rap/Intros
TTITLE3=U.S. Blues
EXTD=YEAR: 2006
EXTT0=
EXTT1=
EXTT2=
EXTT3=
PLAYORDER=
